<svg width="148" height="83" viewBox="0 0 148 83" fill="none" xmlns="http://www.w3.org/2000/svg">
<path fill-rule="evenodd" clip-rule="evenodd" d="M38.9527 19.8991C39.2435 18.6789 39.7992 17.6195 41.6326 18.0402C42.2247 18.1492 42.8686 18.7204 43.2477 19.4422C42.8583 19.8628 42.2921 20.0497 41.8092 20.1588C42.1051 20.5898 43.0193 20.7768 43.575 20.7664C43.5645 21.0157 43.5023 21.2649 43.388 21.4933C42.5518 23.3888 38.4126 21.9245 38.9527 19.8991Z" fill="#0074B7"/>
<path fill-rule="evenodd" clip-rule="evenodd" d="M68.2909 24.282C68.7634 24.5156 68.8466 24.121 68.6077 23.4926C56.0703 3.61432 23.2936 -3.43759 10.9434 17.1365C10.9434 17.1365 13.6491 18.2998 14.5839 18.9644C19.8918 6.99488 42.7281 -2.25366 68.2909 24.282Z" fill="#0074B7"/>
<path fill-rule="evenodd" clip-rule="evenodd" d="M23.9856 29.449L25.3723 29.9578C28.7948 36.1218 40.5531 36.8228 46.3648 30.6174C45.9234 29.3296 45.861 28.0418 46.0013 26.7539C46.3388 30.228 48.3695 32.2946 51.6831 33.2762C50.5613 33.4268 49.4082 33.3696 48.1878 32.7309C41.8826 39.5232 27.9795 38.3183 23.9492 29.7398L23.9856 29.449Z" fill="#0074B7"/>
<path fill-rule="evenodd" clip-rule="evenodd" d="M53.2193 42.5811C51.9469 47.5973 34.003 64.9155 7.97797 61.8985L5.49023 57.6611C20.562 61.2494 37.3943 56.7887 53.2193 42.5811Z" fill="#0074B7"/>
<path fill-rule="evenodd" clip-rule="evenodd" d="M12.927 23.9443C8.88642 47.0212 42.977 52.7022 66.3897 34.3455C50.674 56.2956 0.722049 53.9485 9.29672 21.5087C9.62384 20.2781 13.1296 22.9315 12.927 23.9443Z" fill="#0074B7"/>
<path fill-rule="evenodd" clip-rule="evenodd" d="M62.8789 37.233L66.6857 33.9824V59.6817H62.8789V37.233Z" fill="#0074B7"/>
<path fill-rule="evenodd" clip-rule="evenodd" d="M31.7168 20.9587C32.74 21.3533 33.7266 21.4104 34.5887 22.9216C35.773 24.9987 36.3598 27.4705 35.534 30.6122C34.6668 32.7257 34.0124 32.4869 31.5037 32.3362C29.686 32.2324 28.0189 31.6196 26.305 31.038C25.2248 30.6693 21.4542 29.1478 20.4623 28.883C19.6001 28.6546 16.2658 27.4705 15.5491 26.8994C14.2247 25.8451 13.0719 25.2064 11.737 24.064C10.1426 22.7087 9.23366 21.2547 7.54578 19.889C6.13306 18.7466 5.23458 17.2457 4.09201 15.7555C3.26626 14.6909 1.40704 12.998 1.49522 12.1516C1.5887 11.3051 2.14959 11.7933 4.0505 12.7488C4.78808 13.1174 5.59823 13.6315 6.30458 14.1094C7.18231 14.7012 8.13261 15.2621 8.98958 15.7762C12.755 18.0299 17.0917 20.995 21.1789 20.7146C22.4982 20.616 23.8485 20.6627 25.2195 20.8237C27.1463 21.0522 27.7125 21.5454 27.9254 22.2932C28.1383 23.0463 28.3409 23.1085 28.4812 24.5106C27.9618 23.7784 27.9669 23.1449 26.4453 22.4957C25.0326 21.8882 20.3427 21.9764 18.9717 21.6597C17.128 21.0417 16.6761 21.0988 14.448 20.1641C13.1082 19.4216 12.3394 19.2035 11.119 18.4142C9.44668 17.3081 7.76397 16.0411 4.49201 13.9898C4.90745 14.587 7.0108 17.2354 8.27293 18.3051C9.55579 19.3853 11.1968 21.2183 12.4433 22.1634C14.1988 23.4876 15.6894 24.5314 17.4967 25.5491C18.4212 26.0633 22.1035 26.9772 22.1035 26.9772C22.1035 26.9772 22.6851 26.7747 22.0463 24.7495C22.6798 25.3934 22.4514 25.0766 22.7215 25.7257C23.1785 26.8266 22.8773 27.1849 23.0747 27.3043C24.3315 28.0833 26.2791 28.4001 27.8787 28.6856C28.2007 27.4549 27.9825 26.5877 27.5463 25.84C28.6941 26.702 29.1303 28.4313 29.2446 29.5529C31.831 30.2227 32.3712 30.1968 33.628 29.5945C34.111 28.426 35.0666 27.2213 33.3527 23.6279C32.3556 21.5351 28.7253 20.9535 28.9122 20.6678C29.3433 20.2732 31.7168 20.9587 31.7168 20.9587Z" fill="#0074B7"/>
<path fill-rule="evenodd" clip-rule="evenodd" d="M111.932 59.7025V52.9725L111.522 52.9623C110.39 52.9208 109.008 52.8273 107.403 52.6247L106.967 52.5623L106.816 53.0713C105.451 57.5163 103.773 59.6973 103.773 59.6973L99.5039 59.6818C99.5039 59.6818 101.914 57.1841 103.758 52.2768L103.841 52.0432L103.446 51.9651C102.968 51.8665 102.48 51.7627 101.981 51.6485L100.496 48.7924C101.478 49.1819 102.444 49.5141 103.384 49.7945L104.479 50.101L104.5 50.0283C105.118 47.894 105.591 45.417 105.757 42.6025H106.048V42.5869H116.077V42.6025H116.534C115.199 51.15 114.903 59.6974 114.903 59.6974L111.932 59.7025ZM111.932 51.3471V43.9889H108.437L108.427 44.181C108.266 46.4087 107.964 48.3872 107.585 50.132L107.435 50.776L108.603 50.9785C109.782 51.1602 110.847 51.2745 111.756 51.3368L111.932 51.3471Z" fill="#0074B7"/>
<path fill-rule="evenodd" clip-rule="evenodd" d="M122.096 59.6973L119.125 59.6818V52.7856L118.813 52.8168C116.606 53.0038 115.043 52.8844 115.043 52.8844V51.6432C115.043 51.6432 116.632 51.7159 118.725 51.4199L119.125 51.3576V42.6025H121.587V42.5869H131.61V42.6025H133.226C132.114 48.3614 127.57 50.9318 123.301 52.0586L122.584 52.2352L122.506 53.1024C122.189 56.9918 122.096 59.6973 122.096 59.6973ZM133.542 59.6871V42.6025H138.144C137.729 45.2716 137.417 47.9407 137.183 50.3503L137.079 51.4616L137.349 51.5134C140.845 52.2976 145.67 54.3436 146.5 59.6818H144.901V59.6872H134.877L133.542 59.6871ZM141.8 58.285L141.785 58.1811C141.25 54.946 138.996 53.5387 136.991 52.9363L136.955 52.926L136.939 53.0974C136.763 55.2836 136.664 57.0959 136.607 58.2591V58.2851L141.8 58.285ZM122.75 50.4022L123.041 50.2931C125.591 49.239 127.907 47.3748 128.489 44.0981L128.505 43.989H123.519L123.43 44.6018C123.155 46.5906 122.932 48.5431 122.755 50.3554L122.75 50.4022Z" fill="#0074B7"/>
<path fill-rule="evenodd" clip-rule="evenodd" d="M89.3809 59.6973L86.4102 59.6818V42.6025H88.5759V42.5869H98.5995V42.6025H100.667C100.002 46.8243 96.8389 48.9586 93.8111 50.0439L93.328 50.1996L94.0239 50.48C97.1921 51.8977 100.412 54.5825 100.635 59.661H98.0491V59.6715H89.3809V59.6766C89.3809 59.6922 89.3809 59.6973 89.3809 59.6973ZM96.0183 58.2694V58.2226C95.6859 53.8294 92.7048 51.8977 90.3833 51.046L90.0768 50.9473L90.0094 50.9578H89.9833L89.9106 51.7679C89.6614 54.4941 89.5212 56.7738 89.4485 58.181L89.4431 58.2694H96.0183ZM90.6585 49.3688L90.7468 49.3479C92.8555 48.8287 95.3432 47.4993 95.93 44.1603L95.956 43.9889H90.8039L90.7727 44.2018C90.5494 45.7959 90.3573 47.3747 90.1911 48.8805L90.1547 49.2597L90.6429 49.3635L90.6585 49.3688Z" fill="#0074B7"/>
<path fill-rule="evenodd" clip-rule="evenodd" d="M72.8555 59.6973L69.8848 59.6818V42.6025H74.4861C74.1122 45.0067 73.8163 47.4059 73.5931 49.6232L73.5671 49.8516H79.9082C80.2719 45.6143 80.3757 42.6025 80.3757 42.6025L83.3464 42.5869V59.6974H78.7449C79.1811 56.8932 79.5084 54.0891 79.7525 51.5861L79.7837 51.2537H73.4321L73.4165 51.4199C72.9803 56.187 72.8555 59.6973 72.8555 59.6973Z" fill="#0074B7"/>
<path fill-rule="evenodd" clip-rule="evenodd" d="M6.60021 48.7917C4.78248 46.7924 5.42129 42.4615 8.88551 42.8562C8.52187 36.9209 18.7585 33.7532 18.2286 41.4335C20.1815 41.0648 21.2877 43.8585 21.3605 45.3333C21.4488 47.0417 20.3062 48.5424 18.8259 49.4045C15.6423 51.2635 9.74245 50.2768 6.60021 48.7917Z" fill="#EC676A"/>
<path fill-rule="evenodd" clip-rule="evenodd" d="M8.81373 43.189C10.7301 42.9969 11.6857 45.3596 12.1584 46.715C11.6702 46.4034 11.2183 45.7232 10.6366 45.2817C9.79009 44.643 8.87087 44.0199 7.73862 44.0874C7.6036 43.5006 8.35661 43.2358 8.81373 43.189Z" fill="#313131"/>
<path fill-rule="evenodd" clip-rule="evenodd" d="M13.8867 37.6899C15.637 37.1186 17.1795 38.178 17.1172 40.2188C16.9198 40.951 15.6578 41.4754 15.6058 40.0475C15.5799 39.1023 15.0085 37.8769 13.8867 37.8717V37.6899Z" fill="#313131"/>
<path fill-rule="evenodd" clip-rule="evenodd" d="M16.2575 42.9867L16.1641 42.6492C16.9223 41.5174 18.6777 42.0988 19.4048 42.8517C20.2669 43.7396 20.3968 44.9393 20.3138 46.2582C20.2982 46.6477 20.2826 46.8088 20.0748 46.9333C20.1476 46.8969 19.971 45.3235 19.3529 44.2175C19.1451 43.8487 18.8908 43.5268 18.5791 43.3398C17.8416 42.883 17.1248 42.9452 16.2575 42.9867Z" fill="#313131"/>
<path fill-rule="evenodd" clip-rule="evenodd" d="M27.3865 15.7343C27.6566 14.6075 28.1707 13.6261 29.8639 14.0156C30.4092 14.1142 31.0012 14.6438 31.3543 15.3137C30.996 15.6981 30.4715 15.8746 30.0248 15.9732C30.295 16.3732 31.1466 16.5445 31.6557 16.534C31.6452 16.7625 31.5933 16.9911 31.4842 17.2091C30.7104 18.954 26.8878 17.6038 27.3865 15.7343Z" fill="#0074B7"/>
<path fill-rule="evenodd" clip-rule="evenodd" d="M138.037 19.8055L130.433 22.1216L125.878 19.494L130.433 16.8715L138.037 19.1876L139.439 14.5919L136.12 13.5793L139.106 11.8553L137.408 8.92645L134.432 10.6504L135.211 7.2803L130.537 6.19501L128.74 13.9376L124.191 16.5652V11.3047L129.997 5.88338L126.72 2.37312L124.191 4.74098V1.29297H120.804V4.74098L118.27 2.37312L114.993 5.88338L120.804 11.3047V16.5652L116.25 13.9376L114.453 6.19501L109.778 7.2803L110.557 10.6504L107.576 8.92645L105.883 11.8553L108.869 13.5793L105.551 14.5919L106.948 19.1876L114.562 16.8715L119.111 19.494L114.562 22.1216L106.948 19.8055L105.551 24.4013L108.869 25.4087L105.883 27.1327L107.576 30.0615L110.557 28.3375L109.778 31.7128L114.453 32.7981L116.25 25.0504L120.804 22.4279V27.6832L114.993 33.1097L118.27 36.6201L120.804 34.2521V37.7001H124.191V34.2521L126.72 36.6201L129.997 33.1097L124.191 27.6832V22.4279L128.74 25.0504L130.537 32.7981L135.211 31.7128L134.432 28.3375L137.408 30.0615L139.106 27.1327L136.12 25.4087L139.439 24.4013L138.037 19.8055Z" fill="#0074B7"/>
<path fill-rule="evenodd" clip-rule="evenodd" d="M39.2792 36.5648C39.2792 36.5648 39.9172 38.7251 40.7829 39.2514C41.6486 39.7778 41.9169 41.4944 43.6671 41.4204C45.4173 41.3465 46.31 41.1663 46.6525 39.3221C46.995 37.4779 46.1608 36.2826 45.027 35.372C43.8265 34.4078 42.0148 34.2429 40.5689 34.7174C39.7298 34.9928 40.121 35.2299 40.068 35.4064C40.0207 35.5642 38.4295 35.0381 38.2535 35.2769C38.0584 35.5417 39.2792 36.5648 39.2792 36.5648Z" fill="#EC676A"/>
<path fill-rule="evenodd" clip-rule="evenodd" d="M41.1959 33.9929C41.9802 33.7124 43.3046 33.6294 44.4211 34.1331C45.4443 34.5952 46.1194 35.1509 46.992 36.096C48.2073 37.5084 47.5736 40.4944 45.6832 41.3823C43.0449 42.6233 40.822 40.8007 40.1364 39.3883C38.8952 36.8126 38.4588 36.2882 36.584 35.5145C38.5523 34.4083 41.2167 34.8497 42.8111 35.8987C44.0056 36.6776 45.839 39.3051 44.66 40.541C43.9693 37.6746 41.2531 35.4364 37.8357 35.4313C38.4744 35.5975 39.1288 36.1012 39.6067 36.7607C40.0688 37.4047 40.7908 38.4743 41.3932 39.435C42.5047 40.9929 44.2497 41.6887 45.5273 40.5256C46.1973 39.9179 46.4674 38.5522 46.3376 37.6434C46.1455 36.2881 45.1223 35.5404 44.7484 35.208C44.3744 34.8756 43.5746 34.616 42.7903 34.3252C41.866 33.9877 41.1025 34.2421 40.3546 34.5434C40.3546 34.5434 40.4169 34.2681 41.1959 33.9929Z" fill="#0074B7"/>
<path fill-rule="evenodd" clip-rule="evenodd" d="M21.6022 80.3661C21.6022 80.3661 17.5042 74.7052 16.6438 69.6778C16.5129 68.9131 14.8934 67.2416 14.4511 66.1842C11.9852 60.2895 6.83008 50.2775 6.83008 50.2775C6.83008 50.2775 13.3964 51.5872 16.5035 51.0481C19.6107 50.5089 19.7386 49.3516 19.7386 49.3516C19.7386 49.3516 20.8655 54.3533 21.0329 58.7753C21.179 62.6351 21.0613 66.4198 20.9613 67.0564C20.7467 68.4224 21.6022 80.3661 21.6022 80.3661Z" fill="#EED3A1"/>
<path fill-rule="evenodd" clip-rule="evenodd" d="M4.6378 49.9086C4.98066 50.4746 5.78052 51.2119 6.33611 51.9545C7.04249 52.8997 7.4943 54.255 8.07083 55.3247C9.55096 58.0717 11.1973 60.6006 12.61 63.4048C14.3914 66.9515 16.1832 70.4775 17.6011 74.1176C18.4424 76.2831 19.7668 80.2089 22.1247 81.2839C22.7115 79.4872 21.9585 76.6467 21.813 74.7565C21.5377 71.2149 21.678 67.7979 21.4027 64.2772C20.9924 58.9598 20.9613 53.4552 20.12 48.1949C18.6968 49.5658 19.8578 53.5122 20.1642 55.1635C20.7148 58.1232 20.7414 61.4055 20.4766 64.3187C20.2323 66.993 20.8574 69.6051 21.0288 72.3106C21.1327 73.8425 21.9326 77.9863 20.8055 79.0718C20.7224 76.1481 17.7983 73.9982 17.409 71.1889C18.3385 70.9293 19.4708 70.4931 19.9694 69.7142C17.8659 69.9062 17.4556 70.0829 16.4065 68.7535C15.6899 67.8396 14.6562 66.2609 14.5681 65.186C15.7158 65.186 17.1544 65.4923 17.9802 64.5264C16.848 64.6303 15.6171 64.8588 14.5213 64.5991C13.9291 63.0154 12.6672 61.5614 12.2153 59.9879C13.3267 60.0398 14.4641 59.8684 15.1861 59.0532C14.1058 59.1519 13.0047 59.2505 11.9349 59.2817C11.2337 57.8484 10.6053 56.3218 10.0391 54.8158C11.3168 54.7431 12.6203 54.6601 13.8825 54.5095C13.9603 54.4056 14.2252 53.8967 14.2512 53.8344C12.6152 53.8447 10.9324 54.2965 9.88336 53.5851C9.11989 53.0606 8.15399 51.5131 8.0864 50.5629C9.6964 50.9939 16.8376 52.0324 19.2838 50.0124C16.8947 50.6511 14.1577 50.7445 12.0594 50.62C10.0599 50.5056 7.19822 49.8151 6.41929 49.4152C5.58307 48.9219 6.30506 48.0858 6.09204 47.8418C4.91311 48.0028 3.88477 48.8544 4.6378 49.9086Z" fill="#0074B7"/>
</svg>
